<?xml version="1.0" encoding="iso-8859-1"?>
<!-- Generator: Adobe Illustrator 19.0.0, SVG Export Plug-In . SVG Version: 6.00 Build 0)  -->
<svg version="1.1" id="Layer_1" xmlns="http://www.w3.org/2000/svg" xmlns:xlink="http://www.w3.org/1999/xlink" x="0px" y="0px"
	 viewBox="0 0 512 512" style="enable-background:new 0 0 512 512;" xml:space="preserve">
<g>
	<g>
		<path d="M256,12.46c-28.107,0-50.973,22.867-50.973,50.973c0,28.107,22.867,50.973,50.973,50.973s50.973-22.867,50.973-50.973
			C306.973,35.327,284.107,12.46,256,12.46z"/>
	</g>
</g>
<g>
	<g>
		<path d="M289.982,114.407H256h-33.982c-21.861,0-39.646,17.785-39.646,39.646v56.637c0,9.384,7.607,16.991,16.991,16.991h113.274
			c9.384,0,16.991-7.607,16.991-16.991v-56.637C329.628,132.192,311.843,114.407,289.982,114.407z"/>
	</g>
</g>
<g>
	<g>
		<path d="M256,284.319c-28.107,0-50.973,22.867-50.973,50.973s22.867,50.973,50.973,50.973s50.973-22.867,50.973-50.973
			S284.107,284.319,256,284.319z"/>
	</g>
</g>
<g>
	<g>
		<path d="M438.372,148.389c-28.107,0-50.973,22.867-50.973,50.973c0,28.107,22.867,50.973,50.973,50.973
			s50.973-22.867,50.973-50.973C489.345,171.256,466.478,148.389,438.372,148.389z"/>
	</g>
</g>
<g>
	<g>
		<path d="M472.354,250.336h-33.982h-33.982c-21.861,0-39.646,17.785-39.646,39.646v56.637c0,9.384,7.608,16.991,16.991,16.991
			h21.095c-3.26,0.903-6.286,2.773-8.593,5.587c-17.547,21.401-40.07,38.615-65.208,49.894
			c-3.243-18.62-19.513-32.826-39.047-32.826H256h-33.982c-19.534,0-35.804,14.206-39.047,32.826
			c-25.138-11.28-47.66-28.493-65.208-49.894c-2.307-2.815-5.333-4.684-8.593-5.587h21.095c9.384,0,16.991-7.607,16.991-16.991
			v-56.637c0-21.861-17.785-39.646-39.646-39.646H73.628H39.646C17.785,250.336,0,268.121,0,289.982v56.637
			c0,9.384,7.607,16.991,16.991,16.991h83.067c-11.793,3.283-16.354,17.645-8.575,27.134c21.305,25.983,48.778,46.8,79.451,60.201
			c3.559,1.555,7.552,1.877,11.436,0.773v30.831c0,9.384,7.607,16.991,16.991,16.991h113.274c9.384,0,16.991-7.607,16.991-16.991
			v-30.831c3.881,1.103,7.876,0.784,11.436-0.773c30.674-13.401,58.147-34.218,79.451-60.201c7.793-9.505,3.199-23.856-8.574-27.134
			h83.069c9.384,0,16.991-7.607,16.991-16.991v-56.637C512,268.121,494.215,250.336,472.354,250.336z"/>
	</g>
</g>
<g>
	<g>
		<path d="M73.628,148.389c-28.107,0-50.973,22.867-50.973,50.973c0,28.107,22.867,50.973,50.973,50.973
			c28.107,0,50.973-22.867,50.973-50.973C124.602,171.256,101.735,148.389,73.628,148.389z"/>
	</g>
</g>
<g>
	<g>
		<path d="M193.308,69.822c-3.756-8.599-13.774-12.525-22.372-8.767c-30.672,13.401-58.146,34.218-79.451,60.201
			c-5.951,7.256-4.892,17.963,2.365,23.912c7.256,5.951,17.963,4.89,23.912-2.365c17.914-21.848,41.005-39.348,66.778-50.608
			C193.14,88.438,197.066,78.422,193.308,69.822z"/>
	</g>
</g>
<g>
	<g>
		<path d="M420.514,121.256c-21.305-25.983-48.778-46.8-79.451-60.201c-8.6-3.757-18.616,0.168-22.372,8.767
			c-3.756,8.599,0.169,18.616,8.767,22.373c25.772,11.259,48.863,28.76,66.777,50.608c5.951,7.259,16.657,8.314,23.912,2.365
			C425.405,139.219,426.464,128.512,420.514,121.256z"/>
	</g>
</g>
<g>
</g>
<g>
</g>
<g>
</g>
<g>
</g>
<g>
</g>
<g>
</g>
<g>
</g>
<g>
</g>
<g>
</g>
<g>
</g>
<g>
</g>
<g>
</g>
<g>
</g>
<g>
</g>
<g>
</g>
</svg>
