<?xml version="1.0" encoding="iso-8859-1"?>
<!-- Generator: Adobe Illustrator 19.0.0, SVG Export Plug-In . SVG Version: 6.00 Build 0)  -->
<svg version="1.1" id="Layer_1" xmlns="http://www.w3.org/2000/svg" xmlns:xlink="http://www.w3.org/1999/xlink" x="0px" y="0px"
	 viewBox="0 0 460.734 460.734" style="enable-background:new 0 0 460.734 460.734;" xml:space="preserve">
<g>
	<path d="M421.094,352.761c-6.284,4.199-10.437,6.973-20.106,6.973s-13.822-2.774-20.106-6.973
		c-2.482-1.658-5.154-3.441-8.213-5.114l15.198-56.335h-142.5v-40h151.871L215.367,0v291.313h-142.5l15.197,56.33
		c-3.063,1.674-5.737,3.459-8.221,5.119c-6.508,4.348-10.436,6.972-20.104,6.972c-9.668,0-13.596-2.625-20.103-6.972
		c-8.02-5.359-18.001-12.028-36.77-12.028v30c9.668,0,13.596,2.625,20.103,6.972c8.02,5.359,18.001,12.028,36.77,12.028
		c18.769,0,28.75-6.669,36.771-12.028c6.508-4.348,10.436-6.972,20.104-6.972s13.596,2.625,20.104,6.972
		c8.021,5.359,18.002,12.028,36.771,12.028c18.768,0,28.75-6.669,36.77-12.028c6.507-4.348,10.435-6.972,20.102-6.972
		c9.669,0,13.597,2.625,20.104,6.972c8.021,5.359,18.001,12.028,36.77,12.028c18.77,0,28.751-6.669,36.771-12.028
		c6.508-4.348,10.436-6.972,20.105-6.972c9.669,0,13.598,2.625,20.105,6.972c8.021,5.359,18.003,12.028,36.772,12.028
		s28.752-6.669,36.772-12.027c6.284-4.199,10.437-6.973,20.106-6.973v-30C439.097,340.734,429.115,347.403,421.094,352.761z"/>
	<path d="M400.988,430.734c-9.67,0-13.822-2.774-20.106-6.973c-8.021-5.358-18.003-12.027-36.771-12.027
		c-18.77,0-28.751,6.669-36.771,12.028c-6.508,4.348-10.437,6.972-20.105,6.972c-9.668,0-13.596-2.625-20.104-6.972
		c-8.02-5.359-18.002-12.028-36.771-12.028c-18.768,0-28.749,6.669-36.769,12.028c-6.507,4.348-10.435,6.972-20.103,6.972
		c-9.668,0-13.596-2.625-20.104-6.972c-8.02-5.359-18.001-12.028-36.77-12.028s-28.75,6.669-36.77,12.028
		c-6.508,4.348-10.436,6.972-20.104,6.972c-9.668,0-13.596-2.625-20.103-6.972c-8.02-5.359-18.001-12.028-36.77-12.028v30
		c9.668,0,13.596,2.625,20.103,6.972c8.02,5.359,18.001,12.028,36.77,12.028c18.769,0,28.75-6.669,36.771-12.028
		c6.508-4.348,10.436-6.972,20.104-6.972s13.596,2.625,20.104,6.972c8.021,5.359,18.002,12.028,36.771,12.028
		c18.768,0,28.75-6.669,36.77-12.028c6.507-4.348,10.435-6.972,20.102-6.972c9.669,0,13.597,2.625,20.104,6.972
		c8.021,5.359,18.001,12.028,36.77,12.028c18.77,0,28.751-6.669,36.771-12.028c6.508-4.348,10.436-6.972,20.105-6.972
		c9.669,0,13.598,2.625,20.105,6.972c8.021,5.359,18.003,12.028,36.772,12.028s28.752-6.669,36.772-12.027
		c6.284-4.199,10.437-6.973,20.106-6.973v-30c-18.77,0-28.752,6.669-36.772,12.027C414.81,427.96,410.658,430.734,400.988,430.734z"
		/>
</g>
<g>
</g>
<g>
</g>
<g>
</g>
<g>
</g>
<g>
</g>
<g>
</g>
<g>
</g>
<g>
</g>
<g>
</g>
<g>
</g>
<g>
</g>
<g>
</g>
<g>
</g>
<g>
</g>
<g>
</g>
</svg>
