<?xml version="1.0" encoding="iso-8859-1"?>
<!-- Generator: Adobe Illustrator 19.0.0, SVG Export Plug-In . SVG Version: 6.00 Build 0)  -->
<svg version="1.1" id="Layer_1" xmlns="http://www.w3.org/2000/svg" xmlns:xlink="http://www.w3.org/1999/xlink" x="0px" y="0px"
	 viewBox="0 0 512 512" style="enable-background:new 0 0 512 512;" xml:space="preserve">
<g>
	<g>
		<path d="M196.888,281.352c-15.92-15.919-37.085-24.687-59.598-24.687c-22.513,0-43.679,8.767-59.598,24.687
			c-15.919,15.919-24.687,37.085-24.687,59.598c0.001,3.131,2.539,5.669,5.67,5.669h157.231c3.131,0,5.669-2.539,5.669-5.669
			C221.575,318.437,212.808,297.272,196.888,281.352z"/>
	</g>
</g>
<g>
	<g>
		<circle cx="137.288" cy="206.604" r="41.228"/>
	</g>
</g>
<g>
	<g>
		<path d="M495.195,99.711c-8.14,0-464.841,0-478.39,0C7.524,99.711,0,107.235,0,116.516v278.967
			c0,9.281,7.524,16.805,16.805,16.805c13.011,0,470.169,0,478.39,0c9.281,0,16.805-7.524,16.805-16.805V116.516
			C512,107.235,504.476,99.711,495.195,99.711z M300.254,167.492h77.003c9.281,0,16.805,7.524,16.805,16.805
			c0,9.281-7.524,16.805-16.805,16.805h-77.003c-9.281,0-16.805-7.524-16.805-16.805
			C283.449,175.017,290.973,167.492,300.254,167.492z M242.513,378.678H33.61V133.322h208.903V378.678z M452.32,344.508H300.254
			c-9.281,0-16.805-7.524-16.805-16.805c0-9.281,7.524-16.805,16.805-16.805H452.32c9.281,0,16.805,7.524,16.805,16.805
			C469.125,336.983,461.601,344.508,452.32,344.508z M452.32,272.805H300.254c-9.281,0-16.805-7.524-16.805-16.805
			c0-9.281,7.524-16.805,16.805-16.805H452.32c9.281,0,16.805,7.524,16.805,16.805C469.125,265.281,461.601,272.805,452.32,272.805z
			"/>
	</g>
</g>
<g>
</g>
<g>
</g>
<g>
</g>
<g>
</g>
<g>
</g>
<g>
</g>
<g>
</g>
<g>
</g>
<g>
</g>
<g>
</g>
<g>
</g>
<g>
</g>
<g>
</g>
<g>
</g>
<g>
</g>
</svg>
