<?xml version="1.0" encoding="iso-8859-1"?>
<!-- Generator: Adobe Illustrator 19.0.0, SVG Export Plug-In . SVG Version: 6.00 Build 0)  -->
<svg version="1.1" id="Layer_1" xmlns="http://www.w3.org/2000/svg" xmlns:xlink="http://www.w3.org/1999/xlink" x="0px" y="0px"
	 viewBox="0 0 512 512" style="enable-background:new 0 0 512 512;" xml:space="preserve">
<g>
	<g>
		<path d="M389.565,100.174c9.22,0,16.696-7.475,16.696-16.696V50.087C406.261,22.469,383.792,0,356.174,0H155.826
			c-27.618,0-50.087,22.469-50.087,50.087v33.391c0,9.22,7.475,16.696,16.696,16.696h50.087v92.089
			c-41.427,27.747-66.783,74.762-66.783,124.955c0,9.22,7.475,16.696,16.696,16.696h116.87v161.391
			c0,9.22,7.475,16.696,16.696,16.696s16.696-7.475,16.696-16.696V333.913h116.87c9.22,0,16.696-7.475,16.696-16.696
			c0-50.193-25.355-97.208-66.783-124.955v-92.089H389.565z M371.661,300.522H140.339c5.102-35.072,26.065-66.518,57.238-84.549
			c5.159-2.985,8.336-8.492,8.336-14.452V100.174h100.174v101.347c0,5.959,3.177,11.468,8.336,14.452
			C345.596,234.004,366.559,265.45,371.661,300.522z M139.13,66.783V50.087c0-9.206,7.49-16.696,16.696-16.696h200.348
			c9.206,0,16.696,7.49,16.696,16.696v16.696H139.13z"/>
	</g>
</g>
<g>
</g>
<g>
</g>
<g>
</g>
<g>
</g>
<g>
</g>
<g>
</g>
<g>
</g>
<g>
</g>
<g>
</g>
<g>
</g>
<g>
</g>
<g>
</g>
<g>
</g>
<g>
</g>
<g>
</g>
</svg>
