<?xml version="1.0" encoding="iso-8859-1"?>
<!-- Generator: Adobe Illustrator 18.0.0, SVG Export Plug-In . SVG Version: 6.00 Build 0)  -->
<!DOCTYPE svg PUBLIC "-//W3C//DTD SVG 1.1//EN" "http://www.w3.org/Graphics/SVG/1.1/DTD/svg11.dtd">
<svg version="1.1" id="Capa_1" xmlns="http://www.w3.org/2000/svg" xmlns:xlink="http://www.w3.org/1999/xlink" x="0px" y="0px"
	 viewBox="0 0 461.198 461.198" style="enable-background:new 0 0 461.198 461.198;" xml:space="preserve">
<g>
	<circle cx="263.002" cy="37.954" r="37.954"/>
	<path d="M391.813,311.315c0-6.132-4.971-11.103-11.103-11.103h-15.397v-20.961c4.182-3.837,6.54-9.544,5.833-15.611
		c0,0-11.69-100.249-15.574-133.667c-2.89-24.874-19.926-41.967-43.317-41.967h-98.509c-23.776,0-43.218,19.344-43.337,43.121
		c0,0.045,0,0.091,0,0.136l0.116,47.972c12.214,6.622,20.526,19.558,20.526,34.401v41.694c6.205,0.588,11.843,3.139,16.3,7.015
		l-0.316-131.077c0-0.001,0-0.001,0-0.002c0.023-1.998,1.656-3.603,3.655-3.591c1.998,0.012,3.611,1.636,3.611,3.634l0.008,139.987
		c1.965,3.917,3.074,8.333,3.074,13.005v147.756c0,4.232-0.915,8.252-2.547,11.883c2.183,9.837,10.954,17.195,21.448,17.195
		c12.137,0,21.976-9.839,21.976-21.976V263.506h9.489V439.16c0,12.137,9.839,21.976,21.975,21.976
		c12.137,0,21.976-9.839,21.976-21.976c0-161.971-0.294-277.718-0.377-307.174c-0.006-1.999,1.519-3.67,3.511-3.846
		c1.991-0.176,3.789,1.2,4.132,3.171c0-0.001,0,0,0,0c0.259,1.487,2.717,23.846,15.799,136.568
		c0.767,6.582,4.94,11.925,10.547,14.509v17.826h-15.397c-6.132,0-11.103,4.971-11.103,11.103v111.794
		c0,6.132,4.971,11.103,11.103,11.103h50.794c6.132,0,11.103-4.971,11.103-11.103V311.315z"/>
	<path d="M190.519,273.424c-1.472-0.301-0.815-0.226-17.468-0.226h0v-59.564c0-11.57-9.418-21.104-21.103-21.104h-35.127
		c-11.636,0-21.103,9.467-21.103,21.104v59.564h0c-16.634,0-15.989-0.077-17.468,0.226c-5.062,1.036-8.865,5.514-8.865,10.877
		v147.756c0,5.928,4.65,10.757,10.5,11.072v0v8.068c0,5.544,4.518,10,10,10c5.461,0,10-4.435,10-10v-8.038h69v8.038
		c0,5.544,4.518,10,10,10c5.461,0,10-4.435,10-10v-8.068v0c5.85-0.315,10.5-5.144,10.5-11.072
		c0-156.313,0.032-148.015-0.057-148.892C198.835,278.317,195.221,274.386,190.519,273.424z M115.718,213.635
		c0-0.604,0.492-1.104,1.103-1.104h35.127c0.612,0,1.103,0.499,1.103,1.104v59.564h-37.333V213.635z M95.718,321.55
		c0.125-0.005,0.248-0.019,0.375-0.019c7.498,0,68.398,0,76.583,0c0.127,0,0.25,0.014,0.375,0.019
		c4.796,0.198,8.625,4.137,8.625,8.981c0,4.844-3.829,8.783-8.625,8.981c-0.125,0.005-0.248,0.019-0.375,0.019H96.093
		c-0.127,0-0.25-0.014-0.375-0.019c-4.795-0.198-8.625-4.137-8.625-8.981C87.093,325.687,90.923,321.748,95.718,321.55z"/>
</g>
<g>
</g>
<g>
</g>
<g>
</g>
<g>
</g>
<g>
</g>
<g>
</g>
<g>
</g>
<g>
</g>
<g>
</g>
<g>
</g>
<g>
</g>
<g>
</g>
<g>
</g>
<g>
</g>
<g>
</g>
</svg>
