<?xml version="1.0" encoding="iso-8859-1"?>
<!-- Generator: Adobe Illustrator 19.0.0, SVG Export Plug-In . SVG Version: 6.00 Build 0)  -->
<svg version="1.1" id="Layer_1" xmlns="http://www.w3.org/2000/svg" xmlns:xlink="http://www.w3.org/1999/xlink" x="0px" y="0px"
	 viewBox="0 0 455 455" style="enable-background:new 0 0 455 455;" xml:space="preserve">
<polygon points="404.167,375 404.167,212.5 242.5,212.5 242.5,80 302.5,80 302.5,0 152.5,0 152.5,80 212.5,80 212.5,212.5 
	50.833,212.5 50.833,375 0,375 0,455 131.667,455 131.667,375 80.833,375 80.833,242.5 212.5,242.5 212.5,375 161.667,375 
	161.667,455 293.333,455 293.333,375 242.5,375 242.5,242.5 374.167,242.5 374.167,375 323.333,375 323.333,455 455,455 455,375 "/>
<g>
</g>
<g>
</g>
<g>
</g>
<g>
</g>
<g>
</g>
<g>
</g>
<g>
</g>
<g>
</g>
<g>
</g>
<g>
</g>
<g>
</g>
<g>
</g>
<g>
</g>
<g>
</g>
<g>
</g>
</svg>
